<svg width="32" height="32" xmlns="http://www.w3.org/2000/svg" viewBox="0 0 32 32">
<path d="m9.067.43 1.99 4.031c.112.228.33.386.58.422l4.45.647a.772.772 0 0 1 .427 1.316l-3.22 3.138a.773.773 0 0 0-.222.683l.76 4.431a.772.772 0 0 1-1.12.813l-3.98-2.092a.773.773 0 0 0-.718 0l-3.98 2.092a.772.772 0 0 1-1.119-.813l.76-4.431a.77.77 0 0 0-.222-.683L.233 6.846A.772.772 0 0 1 .661 5.53l4.449-.647a.772.772 0 0 0 .58-.422L7.68.43a.774.774 0 0 1 1.387 0Z"
 fill="#FC7614"/>
</svg>


		<svg width="32" height="32" xmlns="http://www.w3.org/2000/svg" viewBox="0 0 32 32">
<path d="M31.547 12a.848.848 0 00-.677-.577l-9.427-1.376-4.224-8.532a.847.847 0 00-1.516 0l-4.218 8.534-9.427 1.355a.847.847 0 00-.467 1.467l6.823 6.664-1.612 9.375a.847.847 0 001.23.893l8.428-4.434 8.432 4.432a.847.847 0 001.229-.894l-1.615-9.373 6.822-6.665a.845.845 0 00.214-.869z" />
</svg>